<svg width="65" height="65" viewBox="0 0 65 65" fill="none" xmlns="http://www.w3.org/2000/svg">
<rect x="0.657227" y="0.657227" width="64" height="64" rx="8" fill="#4586D6"/>
<path fill-rule="evenodd" clip-rule="evenodd" d="M43.8572 29.4574C43.8572 22.9627 40.2758 18.455 35.6418 17.1017C35.4741 16.6676 35.2089 16.2639 34.8484 15.9253C33.6168 14.7681 31.6977 14.7681 30.4661 15.9253C30.1064 16.2632 29.8416 16.6658 29.6737 17.0989C25.0338 18.4462 21.4572 22.9441 21.4572 29.4574C21.4572 33.6716 20.6076 36.033 19.0348 37.7443C18.7718 38.0304 18.0593 38.6859 17.5767 39.1298L17.5767 39.1298C17.3483 39.3399 17.1715 39.5026 17.118 39.5565L16.6572 40.0237V45.4799H26.398C26.7274 47.1792 27.6494 48.316 29.3167 49.3335C31.3679 50.5852 33.9466 50.5852 35.9977 49.3335C37.4692 48.4356 38.4559 47.0556 38.8562 45.4799H48.6572V40.0237L48.1965 39.5565C48.148 39.5074 47.9787 39.3511 47.7572 39.1469L47.757 39.1466L47.7565 39.1462L47.7564 39.1461C47.2752 38.7022 46.5488 38.0321 46.2818 37.7405C44.7079 36.0212 43.8572 33.6568 43.8572 29.4574ZM35.436 45.4799H29.743C29.9691 45.9004 30.3544 46.218 30.9837 46.602C32.0113 47.2291 33.3032 47.2291 34.3308 46.602C34.8067 46.3116 35.1785 45.9274 35.436 45.4799ZM43.9215 39.9012C44.2582 40.269 44.9798 40.9413 45.4572 41.3805V42.2799H19.8572V41.3812C20.3309 40.9471 21.0547 40.2754 21.3908 39.9097C23.528 37.5844 24.6572 34.4459 24.6572 29.4574C24.6572 23.4092 28.3897 19.8772 32.6572 19.8772C36.9128 19.8772 40.6572 23.4274 40.6572 29.4574C40.6572 34.4298 41.7868 37.5694 43.9215 39.9012Z" fill="white"/>
</svg>
