<svg width="65" height="65" viewBox="0 0 65 65" fill="none" xmlns="http://www.w3.org/2000/svg">
<rect x="0.846436" y="0.846191" width="64" height="64" rx="8" fill="#021934"/>
<path fill-rule="evenodd" clip-rule="evenodd" d="M40.1318 16.8462C37.8155 16.8462 36.3224 17.1221 34.6108 17.9599C33.9771 18.2701 33.3826 18.6436 32.8305 19.0794C32.2997 18.668 31.729 18.3117 31.1215 18.0112C29.3767 17.1482 27.807 16.8462 25.5739 16.8462C19.5929 16.8462 15.2466 21.8018 15.2466 28.238C15.2466 33.0986 17.9567 37.7938 23.0047 42.334C25.6544 44.7171 29.0375 47.0755 31.4604 48.3301L32.8466 49.048L34.2328 48.3301C36.6557 47.0755 40.0388 44.7171 42.6884 42.334C47.7365 37.7938 50.4466 33.0986 50.4466 28.238C50.4466 21.8699 46.0593 16.8708 40.1318 16.8462ZM47.2466 28.238C47.2466 32.046 44.9845 35.9651 40.5485 39.9548C38.1301 42.1299 35.0209 44.3037 32.8466 45.4441C30.6722 44.3037 27.5631 42.1299 25.1446 39.9548C20.7087 35.9651 18.4466 32.046 18.4466 28.238C18.4466 23.4825 21.4604 20.0462 25.5739 20.0462C27.3494 20.0462 28.4436 20.2567 29.7028 20.8795C30.4466 21.2474 31.104 21.7332 31.673 22.3402L32.8503 23.5961L34.0169 22.3303C34.5988 21.6989 35.2658 21.2021 36.0177 20.8341C37.24 20.2358 38.2658 20.0462 40.1251 20.0462C44.1877 20.063 47.2466 23.5485 47.2466 28.238Z" fill="white"/>
</svg>
