<svg width="65" height="65" viewBox="0 0 65 65" fill="none" xmlns="http://www.w3.org/2000/svg">
<rect x="0.501221" y="0.501709" width="64" height="64" rx="8" fill="#F72585"/>
<path fill-rule="evenodd" clip-rule="evenodd" d="M20.0563 44.9469C18.5775 43.4682 18.1533 41.2126 18.6171 38.2529C16.1964 36.4881 14.9014 34.5931 14.9014 32.5019C14.9014 30.4106 16.1964 28.5156 18.6171 26.7508C18.1533 23.7912 18.5775 21.5355 20.0563 20.0568C21.535 18.578 23.7907 18.1538 26.7503 18.6176C28.5152 16.1969 30.4101 14.9019 32.5014 14.9019C34.5926 14.9019 36.4876 16.1969 38.2524 18.6176C41.2121 18.1538 43.4677 18.578 44.9465 20.0568C46.4252 21.5355 46.8494 23.7912 46.3857 26.7508C48.8064 28.5156 50.1014 30.4106 50.1014 32.5019C50.1014 34.5931 48.8064 36.4881 46.3857 38.2529C46.8494 41.2126 46.4252 43.4682 44.9465 44.9469C43.4677 46.4257 41.2121 46.8499 38.2524 46.3862C36.4876 48.8069 34.5926 50.1019 32.5014 50.1019C30.4101 50.1019 28.5152 48.8069 26.7503 46.3862C23.7907 46.8499 21.535 46.4257 20.0563 44.9469ZM27.1455 43.0586C27.795 42.9195 28.4629 43.1962 28.8238 43.7538C30.233 45.9311 31.4896 46.9019 32.5014 46.9019C33.5132 46.9019 34.7698 45.9311 36.179 43.7538C36.5399 43.1962 37.2078 42.9195 37.8572 43.0586C40.3933 43.6018 41.9683 43.3996 42.6837 42.6842C43.3992 41.9688 43.6013 40.3938 43.0581 37.8577C42.9191 37.2082 43.1957 36.5404 43.7533 36.1795C45.9306 34.7702 46.9014 33.5136 46.9014 32.5019C46.9014 31.4901 45.9306 30.2335 43.7533 28.8243C43.1957 28.4634 42.9191 27.7955 43.0581 27.146C43.6013 24.6099 43.3992 23.035 42.6837 22.3195C41.9683 21.6041 40.3933 21.402 37.8572 21.9451C37.2078 22.0842 36.5399 21.8075 36.179 21.2499C34.7698 19.0726 33.5132 18.1019 32.5014 18.1019C31.4896 18.1019 30.233 19.0726 28.8238 21.2499C28.4629 21.8075 27.795 22.0842 27.1455 21.9451C24.6094 21.402 23.0345 21.6041 22.319 22.3195C21.6036 23.035 21.4015 24.6099 21.9446 27.146C22.0837 27.7955 21.807 28.4634 21.2494 28.8243C19.0721 30.2335 18.1014 31.4901 18.1014 32.5019C18.1014 33.5136 19.0721 34.7702 21.2494 36.1795C21.807 36.5404 22.0837 37.2082 21.9446 37.8577C21.4015 40.3938 21.6036 41.9688 22.319 42.6842C23.0345 43.3996 24.6094 43.6018 27.1455 43.0586ZM37.77 26.5705L30.9014 33.4391L27.2327 29.7705L24.97 32.0332L30.9014 37.9646L40.0327 28.8332L37.77 26.5705Z" fill="#FFF5F9"/>
</svg>
